<svg width="400" height="400" viewBox="0 0 400 400" fill="none" xmlns="http://www.w3.org/2000/svg">
<g clip-path="url(#clip0_80_36)">
<path d="M0 200V400H200V200H0ZM100.282 352.424C71.4853 352.424 48.1407 329.08 48.1407 300.282C48.1407 271.485 71.4853 248.141 100.282 248.141C129.08 248.141 152.424 271.485 152.424 300.282C152.424 329.08 129.08 352.424 100.282 352.424Z" fill="#228D57"/>
</g>
<g clip-path="url(#clip1_80_36)">
<path d="M400 300C390.895 290.895 379.926 284.794 368.32 281.693C376.82 273.205 383.27 262.437 386.603 250C374.166 246.668 361.615 246.869 350.014 249.986C353.131 238.385 353.332 225.834 350 213.397C337.563 216.73 326.794 223.18 318.307 231.68C315.205 220.075 309.105 209.105 300 200C290.895 209.105 284.794 220.074 281.693 231.68C273.205 223.18 262.437 216.73 250 213.397C246.668 225.834 246.869 238.385 249.986 249.986C238.385 246.869 225.834 246.668 213.397 250C216.73 262.437 223.18 273.206 231.68 281.693C220.075 284.794 209.105 290.895 200 300C209.105 309.104 220.074 315.205 231.68 318.307C223.18 326.794 216.73 337.563 213.397 350C225.834 353.332 238.385 353.131 249.986 350.014C246.869 361.615 246.668 374.166 250 386.603C262.437 383.27 273.206 376.82 281.693 368.32C284.794 379.925 290.895 390.895 300 400C309.104 390.895 315.205 379.926 318.306 368.32C326.794 376.82 337.562 383.27 349.999 386.603C353.332 374.166 353.13 361.615 350.013 350.014C361.614 353.131 374.164 353.332 386.601 350C383.269 337.563 376.819 326.794 368.319 318.307C379.924 315.206 390.895 309.104 400 300Z" fill="#228D57"/>
</g>
<g clip-path="url(#clip2_80_36)">
<path d="M327.042 97.5749C325.227 97.5749 323.775 98.7161 323.775 100.143C323.775 101.569 325.227 102.71 327.042 102.71H331.76C385.844 102.71 397.096 143.795 396.733 185.164C396.733 195.72 400 200 400 200H307.441C307.441 200 304.537 198.288 304.537 184.023C304.537 156.633 304.537 126.391 304.537 117.832C304.537 113.837 300.907 111.84 296.915 111.84H289.292V200H200V0H289.292V88.1598H296.915C300.907 88.1598 304.537 86.1626 304.537 82.4536C304.537 71.8973 304.537 30.2425 304.537 0.285303H397.096C397.096 46.2197 391.652 97.5749 331.76 97.5749H327.042Z" fill="#228D57"/>
</g>
<g clip-path="url(#clip3_80_36)">
<rect width="100" height="100" fill="#228D57"/>
<rect y="100" width="100" height="100" fill="#228D57"/>
<path d="M200 100C200 155.028 155.307 200 100 200L100 100L200 100Z" fill="#228D57"/>
<path d="M200 0C200 55.0279 155.307 100 100 100L100 -4.37114e-06L200 0Z" fill="#228D57"/>
</g>
<defs>
<clipPath id="clip0_80_36">
<rect width="200" height="200" fill="white" transform="translate(0 200)"/>
</clipPath>
<clipPath id="clip1_80_36">
<rect width="200" height="200" fill="white" transform="translate(200 200)"/>
</clipPath>
<clipPath id="clip2_80_36">
<rect width="200" height="200" fill="white" transform="translate(200)"/>
</clipPath>
<clipPath id="clip3_80_36">
<rect width="200" height="200" fill="white"/>
</clipPath>
</defs>
</svg>
